<svg width="60" height="60" viewBox="0 0 60 60" fill="none" xmlns="http://www.w3.org/2000/svg">
<path d="M30.0005 54.9625C29.313 54.9625 28.6705 54.7775 28.0705 54.4575L21.973 50.8375C21.0605 50.33 21.518 50.145 21.793 50.0525C23.033 49.64 23.263 49.55 24.5455 48.82C24.6855 48.7275 24.868 48.77 25.008 48.8625L29.683 51.6625C29.868 51.7525 30.098 51.7525 30.2355 51.6625L48.533 41.07C48.718 40.98 48.808 40.795 48.808 40.565V19.42C48.808 19.1925 48.718 19.0075 48.533 18.9175L30.2355 8.37001C30.053 8.27751 29.823 8.27751 29.683 8.37001L11.3805 18.915C11.198 19.005 11.1055 19.2375 11.1055 19.4175V40.56C11.1055 40.7425 11.198 40.975 11.3805 41.065L16.3805 43.9575C19.0855 45.3275 20.7855 43.72 20.7855 42.12V21.255C20.7855 20.98 21.013 20.7025 21.3355 20.7025H23.6755C23.9455 20.7025 24.2255 20.9325 24.2255 21.255V42.1225C24.2255 45.745 22.2555 47.8575 18.8155 47.8575C17.7605 47.8575 16.9355 47.8575 14.5955 46.7075L9.78297 43.96C9.19661 43.6191 8.70999 43.1303 8.37175 42.5425C8.0335 41.9546 7.85548 41.2882 7.85547 40.61V19.465C7.85547 18.09 8.58797 16.805 9.78297 16.1175L28.073 5.52501C28.6667 5.20747 29.3296 5.04134 30.003 5.04134C30.6763 5.04134 31.3392 5.20747 31.933 5.52501L50.2255 16.1175C51.423 16.8025 52.153 18.09 52.153 19.465V40.61C52.153 41.9825 51.4205 43.2675 50.2255 43.96L31.933 54.55C31.3305 54.825 30.643 54.9625 30.0005 54.9625V54.9625ZM35.6405 40.4225C27.6155 40.4225 25.9655 36.7525 25.9655 33.6375C25.9655 33.3625 26.1955 33.085 26.5155 33.085H28.9005C29.1755 33.085 29.403 33.2675 29.403 33.545C29.7705 35.9725 30.823 37.1675 35.688 37.1675C39.538 37.1675 41.193 36.2925 41.193 34.23C41.193 33.0375 40.7305 32.1675 34.7255 31.5725C29.728 31.0725 26.6105 29.965 26.6105 25.9775C26.6105 22.265 29.728 20.0625 34.958 20.0625C40.8255 20.0625 43.7155 22.085 44.0805 26.4825C44.0761 26.6309 44.0273 26.7746 43.9405 26.895C43.848 26.985 43.713 27.0775 43.5755 27.0775H41.193C41.0752 27.075 40.9616 27.0333 40.8702 26.9591C40.7787 26.8848 40.7146 26.7822 40.688 26.6675C40.1355 24.1375 38.7155 23.3175 34.958 23.3175C30.7355 23.3175 30.2305 24.785 30.2305 25.885C30.2305 27.2125 30.823 27.625 36.5155 28.36C42.1555 29.0925 44.8155 30.1475 44.8155 34.095C44.7655 38.1325 41.468 40.4225 35.6405 40.4225V40.4225Z" fill="#5DA34C"/>
</svg>
