<svg width="60" height="60" viewBox="0 0 60 60" fill="none" xmlns="http://www.w3.org/2000/svg">
<path d="M30 5C43.805 5 55 16.195 55 30C55 43.805 43.805 55 30 55C16.195 55 5 43.805 5 30C5 16.195 16.195 5 30 5ZM25.0325 38.33C25.3975 39.6725 25.3575 40.9275 24.98 42.0625L24.845 42.4375C24.5292 43.1934 24.0833 43.8881 23.5275 44.49C22.0725 46.0725 20.0425 46.67 19.1725 46.1675C18.235 45.62 18.7025 43.3875 20.39 41.605C22.205 39.6925 24.805 38.46 24.805 38.46V38.455L25.0325 38.33V38.33ZM45.6775 15.7025C44.5475 11.26 37.185 9.7975 30.215 12.275C26.075 13.7475 21.5825 16.0625 18.3575 19.0825C14.5175 22.6675 13.9075 25.7925 14.1575 27.0975C15.045 31.705 21.36 34.7175 23.9575 36.9525V36.965C23.19 37.3375 17.5875 40.15 16.2775 43.06C14.87 46.1225 16.4975 48.3125 17.56 48.59C20.8425 49.4975 24.215 47.84 26.03 45.155C27.7775 42.5275 27.625 39.155 26.8725 37.4975C27.905 37.2175 29.12 37.0925 30.6825 37.2825C35.06 37.78 35.935 40.5325 35.7425 41.6575C35.5575 42.78 34.6525 43.435 34.34 43.6225C34.025 43.8125 33.9325 43.875 33.9625 44C33.995 44.185 34.1525 44.185 34.4 44.1575C34.745 44.095 36.685 43.22 36.7775 41.09C36.87 38.405 34.3075 35.4075 29.745 35.465C27.87 35.5 26.68 35.655 25.8375 36C25.7806 35.9119 25.7056 35.8369 25.6175 35.78C22.805 32.7475 17.585 30.6225 17.805 26.5925C17.8675 25.1225 18.3975 21.25 27.805 16.5625C35.525 12.7175 41.6825 13.7825 42.7475 16.125C44.2725 19.465 39.4625 25.6875 31.4325 26.5925C28.37 26.9375 26.7775 25.75 26.3675 25.31C25.9325 24.84 25.8725 24.81 25.715 24.9075C25.4625 25.0325 25.62 25.4375 25.715 25.69C25.965 26.3125 26.9325 27.41 28.6225 27.97C30.09 28.44 33.6825 28.7175 37.9975 27.0325C42.84 25.16 46.62 19.9375 45.5275 15.5625L45.6775 15.7025V15.7025Z" fill="#E33AFF"/>
</svg>
