<svg width="60" height="60" viewBox="0 0 60 60" fill="none" xmlns="http://www.w3.org/2000/svg">
<path d="M32.5754 30.0003C32.5754 27.5358 30.5775 25.5378 28.1129 25.5378C25.6483 25.5378 23.6504 27.5358 23.6504 30.0003C23.6504 32.4649 25.6483 34.4628 28.1129 34.4628C30.5775 34.4628 32.5754 32.4649 32.5754 30.0003Z" fill="#34F3FF"/>
<path d="M36.9837 42.4945L36.7312 43.482C34.8787 50.817 31.7287 55.0245 28.1012 55.0245C24.4712 55.0245 21.3237 50.8145 19.4712 43.482L19.2212 42.4945L20.1987 42.217C22.758 41.4756 25.2522 40.5258 27.6562 39.377L28.1012 39.1645L28.5462 39.377C30.9537 40.527 33.4487 41.4795 36.0087 42.217L36.9837 42.4945V42.4945ZM21.7462 43.937C23.3162 49.5095 25.7112 52.932 28.1012 52.932C30.4862 52.932 32.8837 49.512 34.4512 43.937C32.2812 43.2545 30.1587 42.4295 28.1012 41.4745C26.0403 42.4364 23.9172 43.2591 21.7462 43.937V43.937ZM36.9837 17.507L36.0037 17.782C33.444 18.5253 30.9491 19.4759 28.5437 20.6245L28.1012 20.837L27.6537 20.6245C25.2512 19.4745 22.7537 18.527 20.1937 17.782L19.2187 17.507L19.4687 16.5195C21.3212 9.18196 24.4687 4.97696 28.1012 4.97696C31.7312 4.97696 34.8787 9.18446 36.7312 16.5195L36.9837 17.507V17.507ZM28.1012 18.532C30.2662 17.532 32.3962 16.6995 34.4512 16.0645C32.8837 10.4895 30.4862 7.06696 28.1012 7.06696C25.7112 7.06696 23.3187 10.487 21.7462 16.0645C23.9166 16.7463 26.0395 17.5706 28.1012 18.532V18.532Z" fill="#34F3FF"/>
<path d="M21.736 43.9519L20.761 44.2269C13.491 46.2919 8.28353 45.6669 6.46853 42.5094C4.68103 39.4219 6.79353 34.4544 12.131 29.2519L12.861 28.5419L13.5885 29.2519C15.5102 31.0997 17.5787 32.7886 19.7735 34.3019L20.1785 34.5844L20.2185 35.0744C20.4275 37.7355 20.8531 40.375 21.491 42.9669L21.736 43.9519V43.9519ZM7.91353 39.9969C7.91353 40.5569 8.03603 41.0519 8.27603 41.4694C9.46853 43.5394 13.621 43.9044 19.226 42.4794C18.7335 40.2519 18.381 38.0044 18.1835 35.7394C16.3237 34.4281 14.5508 32.9976 12.876 31.4569C9.70853 34.7144 7.91353 37.7894 7.91353 39.9969V39.9969ZM50.3735 20.0044C50.3735 22.9744 48.1335 26.7894 44.0685 30.7494L43.341 31.4569L42.616 30.7494C40.6912 28.9013 38.6203 27.2117 36.4235 25.6969L36.0235 25.4169L35.976 24.9319C35.7707 22.2699 35.3468 19.6294 34.7085 17.0369L34.4585 16.0494L35.436 15.7719C42.701 13.7169 47.916 14.3394 49.731 17.4919C50.1649 18.2573 50.3867 19.1247 50.3735 20.0044V20.0044ZM43.3235 28.5419C46.491 25.2869 48.2885 22.2094 48.2885 20.0044C48.2885 19.4419 48.1635 18.9469 47.926 18.5319C46.731 16.4594 42.571 16.0919 36.966 17.5219C37.461 19.7469 37.816 21.9969 38.0135 24.2669C39.8763 25.5726 41.6502 27.0008 43.3235 28.5419V28.5419Z" fill="#34F3FF"/>
<path d="M21.7386 16.0511L21.4911 17.0386C20.8512 19.6309 20.4256 22.2714 20.2186 24.9336L20.1761 25.4186L19.7711 25.6986C17.5751 27.2112 15.5065 28.901 13.5861 30.7511L12.8586 31.4586L12.1336 30.7511C6.79859 25.5511 4.68609 20.5861 6.47109 17.4936C8.28859 14.3386 13.4961 13.7111 20.7636 15.7736L21.7386 16.0511ZM18.1861 24.2686C18.3986 21.8836 18.7561 19.6236 19.2286 17.5236C13.6236 16.0961 9.47109 16.4611 8.27609 18.5336C7.08359 20.5936 8.90859 24.4711 12.8786 28.5436C14.5536 27.0036 16.3236 25.5736 18.1861 24.2686ZM50.3761 39.9986C50.3887 40.8782 50.1669 41.7454 49.7336 42.5111C47.9186 45.6686 42.7061 46.2936 35.4386 44.2311L34.4611 43.9611L34.7111 42.9736C35.3186 40.5636 35.7461 37.9086 35.9786 35.0786L36.0261 34.5936L36.4261 34.3111C38.6211 32.8011 40.6936 31.1111 42.6186 29.2611L43.3436 28.5511L44.0711 29.2611C48.1386 33.2186 50.3761 37.0336 50.3761 39.9986V39.9986ZM36.9711 42.4811C42.5761 43.9061 46.7361 43.5411 47.9311 41.4711C49.1061 39.4086 47.2936 35.5436 43.3261 31.4586C41.6508 32.9987 39.878 34.4291 38.0186 35.7411C37.8181 38.0083 37.4682 40.2599 36.9711 42.4811V42.4811Z" fill="#34F3FF"/>
<path d="M21.7366 16.0512L21.4891 17.0387C20.8492 19.631 20.4236 22.2716 20.2166 24.9337L20.1741 25.4187L19.7691 25.6987C17.5731 27.2114 15.5045 28.9012 13.5841 30.7512L12.8566 31.4587L12.1316 30.7512C6.79664 25.5512 4.68414 20.5862 6.46914 17.4937C8.28664 14.3387 13.4941 13.7112 20.7616 15.7737L21.7366 16.0512ZM18.1841 24.2687C18.3966 21.8837 18.7541 19.6237 19.2266 17.5237C13.6216 16.0962 9.46914 16.4612 8.27414 18.5337C7.08164 20.5937 8.90664 24.4712 12.8766 28.5437C14.5516 27.0037 16.3216 25.5737 18.1841 24.2687ZM50.3741 39.9987C50.3867 40.8784 50.1649 41.7456 49.7316 42.5112C47.9166 45.6687 42.7041 46.2937 35.4366 44.2312L34.4591 43.9612L34.7091 42.9737C35.3166 40.5637 35.7441 37.9087 35.9766 35.0787L36.0241 34.5937L36.4241 34.3112C38.6191 32.8012 40.6916 31.1112 42.6166 29.2612L43.3416 28.5512L44.0691 29.2612C48.1366 33.2187 50.3741 37.0337 50.3741 39.9987V39.9987ZM36.9691 42.4812C42.5741 43.9062 46.7341 43.5412 47.9291 41.4712C49.1041 39.4087 47.2916 35.5437 43.3241 31.4587C41.6489 32.9988 39.876 34.4293 38.0166 35.7412C37.8161 38.0085 37.4662 40.26 36.9691 42.4812V42.4812Z" fill="#34F3FF"/>
<path d="M38.2818 29.9996C38.2818 31.7171 38.2093 33.4797 38.0618 35.2497L38.0193 35.7396L37.6143 36.0222C36.179 37.0203 34.7036 37.9594 33.1918 38.8371C31.6759 39.7084 30.1254 40.5183 28.5443 41.2646L28.1018 41.4746L27.6543 41.2646C26.0743 40.5171 24.5243 39.7096 23.0093 38.8371C21.5193 37.9696 20.0293 37.0222 18.5843 36.0222L18.1843 35.7396L18.1393 35.2497C17.8468 31.7574 17.8468 28.2469 18.1393 24.7547L18.1868 24.2697L18.5868 23.9872C21.4587 21.9877 24.4926 20.2316 27.6568 18.7372L28.1043 18.5297L28.5468 18.7372C31.7132 20.2274 34.7474 21.9837 37.6168 23.9872L38.0218 24.2697L38.0643 24.7547C38.2068 26.5197 38.2818 28.2846 38.2818 29.9996V29.9996ZM36.0218 34.5846C36.2543 31.4971 36.2543 28.5021 36.0218 25.4171C33.4998 23.6949 30.8524 22.164 28.1018 20.8372C25.3487 22.1593 22.7009 23.6904 20.1818 25.4171C19.9468 28.4685 19.9468 31.5333 20.1818 34.5846C22.7 36.3128 25.3479 37.844 28.1018 39.1647C30.8509 37.835 33.4981 36.3041 36.0218 34.5846V34.5846Z" fill="#34F3FF"/>
</svg>
