<svg width="60" height="60" viewBox="0 0 60 60" fill="none" xmlns="http://www.w3.org/2000/svg">
<path d="M18.5195 6.02929L18.5196 6.02862C18.5398 5.89749 18.6007 5.77603 18.6937 5.68143C18.7868 5.58683 18.9072 5.52388 19.038 5.50149C19.1687 5.47911 19.3032 5.49841 19.4224 5.55668C19.5415 5.61488 19.6393 5.70903 19.702 5.82581C19.7021 5.82593 19.7021 5.82605 19.7022 5.82617L24.8734 15.5319L14.0202 34.9789L18.5195 6.02929ZM31.339 54.141L31.3387 54.1412C30.4632 54.6311 29.3961 54.6313 28.5205 54.1417C28.5202 54.1415 28.5199 54.1413 28.5196 54.1412L12.7177 45.2366L41.8438 15.9137C41.8444 15.9131 41.8449 15.9126 41.8454 15.9121C41.9277 15.8315 42.0304 15.7749 42.1425 15.7482C42.2553 15.7214 42.3733 15.7259 42.4837 15.7614C42.5941 15.7968 42.6926 15.8618 42.7687 15.9493C42.8442 16.0362 42.8947 16.1419 42.9148 16.2552C42.9149 16.2561 42.9151 16.2569 42.9152 16.2577L47.5512 45.0841L31.339 54.141ZM29.437 12.8736L29.4371 12.8737L29.4429 12.8628C29.4963 12.7613 29.5765 12.6762 29.6748 12.6169C29.773 12.5576 29.8856 12.5262 30.0004 12.5262C30.1152 12.5262 30.2278 12.5576 30.326 12.6169C30.4242 12.6762 30.5043 12.7611 30.5578 12.8625C30.5578 12.8626 30.5579 12.8627 30.5579 12.8628L34.1802 19.7947L14.5563 39.541L29.437 12.8736Z" fill="#FFCC2F" stroke="black"/>
</svg>
