<svg width="60" height="60" viewBox="0 0 60 60" fill="none" xmlns="http://www.w3.org/2000/svg">
<path d="M39.1528 38.8725C39.9988 38.7899 40.7799 38.3829 41.3322 37.7369C41.8846 37.0909 42.1653 36.256 42.1153 35.4075C42.0763 34.5361 41.7046 33.7128 41.0767 33.1072C40.4488 32.5016 39.6126 32.1599 38.7403 32.1525H38.6203C37.7255 32.1844 36.8799 32.5701 36.2692 33.2249C35.6584 33.8797 35.3325 34.7501 35.3628 35.645C35.4228 36.5925 35.8103 37.3625 36.3403 37.9225C34.2728 41.945 31.1653 44.9075 26.4553 47.3925C23.2903 49.05 19.9453 49.6725 16.6928 49.2275C13.9703 48.845 11.8428 47.6275 10.5353 45.675C8.58534 42.7125 8.40534 39.52 10.0328 36.325C11.0254 34.4189 12.4438 32.767 14.1778 31.4975C13.821 30.5063 13.5443 29.488 13.3503 28.4525C4.58534 34.7275 5.48034 43.3075 8.14034 47.3625C10.1253 50.3225 14.1778 52.215 18.6153 52.215C19.8003 52.215 21.0453 52.1275 22.2578 51.83C29.9503 50.35 35.7803 45.735 39.1253 38.93L39.1528 38.8725V38.8725Z" fill="#7247B5"/>
<path d="M49.7177 31.4725C45.1327 26.0875 38.3852 23.13 30.6902 23.13H29.6827C29.1827 22.035 28.0302 21.3525 26.7252 21.3525H26.6352C24.7752 21.3525 23.3227 22.9525 23.3827 24.815C23.4402 26.59 24.9502 28.07 26.7577 28.07H26.9052C27.5449 28.0458 28.1642 27.8377 28.6887 27.4705C29.2133 27.1034 29.6209 26.5928 29.8627 26H30.9602C35.5202 26 39.8377 27.33 43.7752 29.935C46.7902 31.915 48.9552 34.52 50.1677 37.6275C51.2302 40.175 51.1727 42.66 50.0802 44.735C48.3927 47.99 45.5502 49.705 41.7952 49.705C39.4277 49.705 37.1177 48.965 35.9327 48.4325C35.2252 49.02 34.0377 49.9975 33.1777 50.59C35.7827 51.7725 38.4177 52.455 40.9602 52.455C46.7327 52.455 51.0177 49.2 52.6502 46.0625C54.4227 42.5075 54.2777 36.53 49.7477 31.415L49.7177 31.4725V31.4725Z" fill="#7247B5"/>
<path d="M19.1178 39.9375C19.1753 41.7125 20.6828 43.1925 22.4928 43.1925H22.6128C23.0576 43.1823 23.4958 43.0833 23.9017 42.9012C24.3076 42.7191 24.673 42.4576 24.9763 42.1322C25.2796 41.8067 25.5147 41.4239 25.6678 41.0062C25.8209 40.5885 25.8889 40.1444 25.8678 39.7C25.8678 37.925 24.3278 36.4475 22.5228 36.4475H22.4028C22.2828 36.4475 22.1078 36.4475 21.9578 36.5025C19.5028 32.36 18.4653 27.9175 18.8528 23.13C19.0878 19.5175 20.2703 16.38 22.4028 13.775C24.1778 11.555 27.5228 10.46 29.8028 10.4C36.1928 10.28 38.8578 18.245 39.0628 21.41L42.0228 22.295C41.3403 12.59 35.3053 7.5 29.5328 7.5C24.1178 7.5 19.1178 11.435 17.1053 17.21C14.3503 24.9025 16.1578 32.3 19.5328 38.22C19.2378 38.605 19.0603 39.285 19.1178 39.9375V39.9375Z" fill="#7247B5"/>
</svg>
